<svg width="1728" height="161" viewBox="0 0 1728 161" fill="none" xmlns="http://www.w3.org/2000/svg">
<path d="M0 128.8L32.04 110.033C63.96 91.0656 128.4 53.8344 192 45.6334C255.96 37.7344 320.4 58.8656 384 56.35C447.96 53.8344 512.4 26.6656 576 32.2C639.96 37.7344 704.4 74.9656 768 75.1166C831.96 74.9656 896.4 37.7344 960 42.9166C1023.96 48.3 1088.4 96.6 1152 101.983C1215.96 107.166 1280.4 69.9344 1344 67.0666C1407.96 64.4 1472.4 96.6 1536 107.317C1599.96 118.234 1664.4 107.166 1695.6 101.983L1728 96.6V0H1695.96C1664.04 0 1599.6 0 1536 0C1472.04 0 1407.6 0 1344 0C1280.04 0 1215.6 0 1152 0C1088.04 0 1023.6 0 960 0C896.04 0 831.6 0 768 0C704.04 0 639.6 0 576 0C512.04 0 447.6 0 384 0C320.04 0 255.6 0 192 0C128.04 0 63.6 0 32.4 0H0V128.8Z" fill="white"/>
</svg>
