<svg width="1728" height="149" viewBox="0 0 1728 149" fill="none" xmlns="http://www.w3.org/2000/svg">
<g clip-path="url(#clip0_8_15)">
<path d="M0 119.2L32.04 101.832C63.96 84.2781 128.4 49.8219 192 42.2322C255.96 34.9219 320.4 54.4781 384 52.15C447.96 49.8219 512.4 24.6781 576 29.8C639.96 34.9219 704.4 69.3781 768 69.5178C831.96 69.3781 896.4 34.9219 960 39.7178C1023.96 44.7 1088.4 89.4 1152 94.3822C1215.96 99.1781 1280.4 64.7219 1344 62.0678C1407.96 59.6 1472.4 89.4 1536 99.3178C1599.96 109.422 1664.4 99.1781 1695.6 94.3822L1728 89.4V149H1695.96C1664.04 149 1599.6 149 1536 149C1472.04 149 1407.6 149 1344 149C1280.04 149 1215.6 149 1152 149C1088.04 149 1023.6 149 960 149C896.04 149 831.6 149 768 149C704.04 149 639.6 149 576 149C512.04 149 447.6 149 384 149C320.04 149 255.6 149 192 149C128.04 149 63.6 149 32.4 149H0V119.2Z" fill="white"/>
</g>
<defs>
<clipPath id="clip0_8_15">
<rect width="1728" height="149" fill="white"/>
</clipPath>
</defs>
</svg>
